<svg width="411" height="79" viewBox="0 0 411 79" fill="none" xmlns="http://www.w3.org/2000/svg">
<path d="M14.2378 41.2736V37.743L28.5915 23.4004L30.4688 21.5244L32.3461 19.7722H37.2041H41.8418L47.1414 21.5244L36.1878 31.8866L25.8248 41.2736L18.8755 44.3627H16.887L14.2378 41.2736Z" fill="#FFCB23"/>
<path d="M19.3524 46.613H15.8526L11.9868 42.1061V36.8108L28.9321 19.8802L31.4575 17.5219H42.2034L51.4233 20.5712L37.6978 33.5549L27.0673 43.1841L19.3524 46.613ZM17.9219 42.1124H18.397L24.5806 39.3641L34.6584 30.2361L42.8578 22.4797L41.4787 22.0235H33.2331L32.0323 23.1445L16.4882 38.6762V40.441L17.9219 42.1124Z" fill="#222222"/>
<path d="M14.848 49.3299L58.9086 3.12164L65.3513 8.82178L34.1761 41.391L22.5377 53.6039L21.0831 55.0289L12.354 58.2859L14.848 49.3299Z" fill="#3898EC"/>
<path d="M9 61.9392L12.8302 48.1838L58.7754 0L68.5952 8.68652L35.8028 42.9471L24.1403 55.1852L22.3164 56.9709L9 61.9392ZM16.8648 50.4749L15.707 54.6326L19.8486 53.087L20.9352 52.0227L32.5473 39.837L62.1074 8.95601L59.0418 6.24331L16.8648 50.4749Z" fill="#222222"/>
<path d="M78.5279 34.6664V59.799L51.2385 59.7382L46.8357 57.4764L44.1886 53.2296L39.0862 50.8524L25.4331 51.7951L23.3775 50.8377L21.9962 49.4504L20.8436 48.1963L20.4199 46.7818L20.7744 44.4057L22.1934 42.9817L43.8592 36.9953C43.8592 36.9953 43.5551 35.8723 42.607 34.6653L52.5442 24.3032L57.9927 28.3885L67.9299 34.6643H78.5279V34.6664Z" fill="#FFCB23"/>
<path d="M51.0227 62L45.309 59.3439L42.6325 55.1087L38.6701 53.2149L25.2771 54.0915L22.1192 52.8301L18.9844 49.4117L18.3101 47.0534V43.5102L21.2309 40.9559L39.4976 35.8754L42.4028 32.7276L44.6262 34.7786H49.2786L56.5415 37.8227L54.8015 41.973L48.3735 39.2792H44.0536L23.4229 45.0181L22.8114 45.5529V46.4232L23.0202 47.153L24.7433 49.031L26.0008 49.5344L39.549 48.6462L45.7442 51.6074L48.3672 55.7567L51.9289 57.4921L76.3866 57.5026V36.8517H67.4069L56.5152 30.2277L50.1659 24.3357L53.2273 21.0368L59.2442 26.6195L68.6686 32.3511H80.888V61.9675L51.0227 62Z" fill="#222222"/>
<path d="M92 11H99.835V54.2779H121.902V61.3232H92V11Z" fill="black"/>
<path d="M134.623 62.0421C131.509 62.0421 128.945 61.0835 126.932 59.1665C124.967 57.2494 123.985 54.7332 123.985 51.618C123.985 48.5027 125.063 46.0105 127.22 44.1414C129.424 42.2722 132.084 40.9543 135.198 40.1874C138.313 39.3727 141.476 38.9413 144.687 38.8934C144.639 36.1616 144.04 34.2924 142.89 33.286C141.787 32.2316 139.99 31.7044 137.499 31.7044C135.965 31.7044 134.432 31.944 132.898 32.4233C131.413 32.8546 129.759 33.6215 127.939 34.7238L127.076 28.6131C128.849 27.5108 130.79 26.6721 132.898 26.0969C135.055 25.4739 137.259 25.1624 139.511 25.1624C143.92 25.1624 147.131 26.3605 149.143 28.7569C151.156 31.1532 152.162 35.227 152.162 40.9782V49.2456C152.162 51.1147 152.234 52.5046 152.378 53.4152C152.57 54.3258 152.905 54.9729 153.384 55.3563C153.911 55.7397 154.726 55.9314 155.828 55.9314H156.691L155.828 62.0421H154.175C151.683 62.0421 149.79 61.6586 148.496 60.8918C147.25 60.125 146.244 58.9268 145.477 57.2973C144.183 58.783 142.602 59.9572 140.733 60.8199C138.864 61.6347 136.828 62.0421 134.623 62.0421ZM136.924 56.1471C138.313 56.1471 139.703 55.8116 141.093 55.1406C142.53 54.4696 143.728 53.535 144.687 52.3369V43.9976C136.061 44.2852 131.748 46.7055 131.748 51.2585C131.748 54.5175 133.473 56.1471 136.924 56.1471Z" fill="black"/>
<path d="M173.043 62.0421C169.928 62.0421 167.58 61.2033 165.999 59.5259C164.465 57.8005 163.698 55.6918 163.698 53.1996V31.7763H158.02L158.667 25.8094H163.698V17.3982L171.174 16.6793V25.8094H179.872V31.7763H171.174V49.3894C171.174 51.594 171.294 53.1277 171.533 53.9904C171.821 54.8051 172.372 55.3323 173.187 55.5719C174.001 55.8116 175.535 55.9314 177.787 55.9314H179.728L179.153 62.0421H173.043Z" fill="black"/>
<path d="M202.434 62.0421C198.361 62.0421 194.863 61.2033 191.94 59.5259C189.064 57.8485 186.884 55.5959 185.398 52.7682C183.961 49.9405 183.242 46.7774 183.242 43.2787C183.242 39.9718 183.913 36.9524 185.255 34.2205C186.644 31.4408 188.633 29.2362 191.221 27.6066C193.856 25.9771 196.971 25.1624 200.565 25.1624C205.261 25.1624 208.999 26.5523 211.779 29.332C214.558 32.0638 215.948 35.7302 215.948 40.3312C215.948 41.5773 215.804 42.9193 215.516 44.3571H190.933C191.412 48.335 192.73 51.2106 194.887 52.9839C197.091 54.7572 199.87 55.6438 203.225 55.6438C207.01 55.6438 210.485 54.8291 213.647 53.1996L214.366 59.3102C210.533 61.1315 206.555 62.0421 202.434 62.0421ZM208.256 39.2529C208.256 37.0003 207.609 35.1551 206.316 33.7173C205.022 32.2795 203.081 31.5606 200.493 31.5606C195.653 31.5606 192.61 34.1247 191.365 39.2529H208.256Z" fill="black"/>
<path d="M222.251 25.8094H228.864L229.367 30.7698C232.53 26.9836 235.837 25.0905 239.287 25.0905C239.814 25.0905 240.365 25.1384 240.94 25.2343L240.293 33.0703C239.526 32.8786 238.664 32.7827 237.705 32.7827C236.076 32.7827 234.543 33.1662 233.105 33.933C231.668 34.6998 230.637 35.5865 230.014 36.5929V61.3232H222.251V25.8094Z" fill="black"/>
<path d="M263.673 25.1624C266.884 25.1624 269.663 25.9771 272.012 27.6066C274.408 29.2362 276.229 31.4648 277.474 34.2924C278.72 37.0722 279.343 40.1635 279.343 43.5663C279.343 47.017 278.744 50.1562 277.546 52.9839C276.348 55.7636 274.575 57.9683 272.227 59.5978C269.879 61.2273 267.028 62.0421 263.673 62.0421C259.025 62.0421 255.431 60.7001 252.891 58.0162V78.7206H245.416V25.8094H251.31L252.173 29.979C255.144 26.7679 258.977 25.1624 263.673 25.1624ZM262.38 55.6438C265.303 55.6438 267.579 54.5655 269.208 52.4088C270.885 50.2521 271.724 47.3046 271.724 43.5663C271.724 39.8759 270.885 36.9524 269.208 34.7957C267.531 32.639 265.255 31.5606 262.38 31.5606C259.361 31.5606 256.965 32.615 255.192 34.7238C253.418 36.8326 252.532 39.7801 252.532 43.5663C252.532 47.4963 253.394 50.4917 255.12 52.5526C256.893 54.6134 259.313 55.6438 262.38 55.6438Z" fill="black"/>
<path d="M285.919 25.8094H292.532L293.035 30.7698C296.198 26.9836 299.504 25.0905 302.954 25.0905C303.481 25.0905 304.033 25.1384 304.608 25.2343L303.961 33.0703C303.194 32.8786 302.331 32.7827 301.373 32.7827C299.744 32.7827 298.21 33.1662 296.773 33.933C295.335 34.6998 294.305 35.5865 293.682 36.5929V61.3232H285.919V25.8094Z" fill="black"/>
<path d="M325.347 62.0421C321.274 62.0421 317.775 61.2033 314.852 59.5259C311.977 57.8485 309.797 55.5959 308.311 52.7682C306.873 49.9405 306.155 46.7774 306.155 43.2787C306.155 39.9718 306.826 36.9524 308.167 34.2205C309.557 31.4408 311.546 29.2362 314.133 27.6066C316.769 25.9771 319.884 25.1624 323.478 25.1624C328.174 25.1624 331.912 26.5523 334.691 29.332C337.471 32.0638 338.86 35.7302 338.86 40.3312C338.86 41.5773 338.717 42.9193 338.429 44.3571H313.846C314.325 48.335 315.643 51.2106 317.799 52.9839C320.004 54.7572 322.783 55.6438 326.137 55.6438C329.923 55.6438 333.397 54.8291 336.56 53.1996L337.279 59.3102C333.445 61.1315 329.468 62.0421 325.347 62.0421ZM331.169 39.2529C331.169 37.0003 330.522 35.1551 329.228 33.7173C327.934 32.2795 325.994 31.5606 323.406 31.5606C318.566 31.5606 315.523 34.1247 314.277 39.2529H331.169Z" fill="black"/>
<path d="M355.227 62.0421C350.723 62.0421 346.697 61.0835 343.151 59.1665L343.942 52.265C345.332 53.2715 346.961 54.1341 348.83 54.853C350.699 55.524 352.735 55.8595 354.94 55.8595C357 55.8595 358.582 55.524 359.684 54.853C360.786 54.1821 361.337 53.1756 361.337 51.8337C361.337 50.3479 360.738 49.2216 359.54 48.4548C358.39 47.6401 356.689 46.8732 354.436 46.1543C352.136 45.3875 350.243 44.6446 348.758 43.9257C347.272 43.1589 346.05 42.1045 345.092 40.7626C344.134 39.4206 343.654 37.6952 343.654 35.5865C343.654 32.5671 344.78 30.0749 347.033 28.1099C349.333 26.0969 352.639 25.0905 356.952 25.0905C360.69 25.0905 364.092 25.9292 367.159 27.6066L366.369 34.2205C364.883 33.1182 363.398 32.2795 361.912 31.7044C360.474 31.0813 358.869 30.7698 357.096 30.7698C355.227 30.7698 353.766 31.1293 352.711 31.8482C351.657 32.5671 351.13 33.6215 351.13 35.0113C351.13 36.0178 351.393 36.8326 351.921 37.4556C352.448 38.0787 353.214 38.6058 354.221 39.0372C355.227 39.4685 356.808 40.0676 358.965 40.8344C362.032 41.8888 364.452 43.1829 366.225 44.7165C368.046 46.2502 368.956 48.5027 368.956 51.4742C368.956 54.5415 367.83 57.0816 365.578 59.0946C363.374 61.0596 359.923 62.0421 355.227 62.0421Z" fill="black"/>
<path d="M385.271 62.0421C380.766 62.0421 376.741 61.0835 373.195 59.1665L373.986 52.265C375.375 53.2715 377.005 54.1341 378.874 54.853C380.742 55.524 382.779 55.8595 384.983 55.8595C387.044 55.8595 388.625 55.524 389.727 54.853C390.83 54.1821 391.381 53.1756 391.381 51.8337C391.381 50.3479 390.782 49.2216 389.584 48.4548C388.434 47.6401 386.732 46.8732 384.48 46.1543C382.18 45.3875 380.287 44.6446 378.802 43.9257C377.316 43.1589 376.094 42.1045 375.136 40.7626C374.177 39.4206 373.698 37.6952 373.698 35.5865C373.698 32.5671 374.824 30.0749 377.076 28.1099C379.377 26.0969 382.683 25.0905 386.996 25.0905C390.734 25.0905 394.136 25.9292 397.203 27.6066L396.412 34.2205C394.927 33.1182 393.441 32.2795 391.956 31.7044C390.518 31.0813 388.913 30.7698 387.14 30.7698C385.271 30.7698 383.809 31.1293 382.755 31.8482C381.701 32.5671 381.174 33.6215 381.174 35.0113C381.174 36.0178 381.437 36.8326 381.964 37.4556C382.491 38.0787 383.258 38.6058 384.265 39.0372C385.271 39.4685 386.852 40.0676 389.009 40.8344C392.076 41.8888 394.496 43.1829 396.269 44.7165C398.09 46.2502 399 48.5027 399 51.4742C399 54.5415 397.874 57.0816 395.622 59.0946C393.417 61.0596 389.967 62.0421 385.271 62.0421Z" fill="black"/>
</svg>
